<?xml version="1.0" encoding="UTF-8" standalone="no"?>
<!-- This is a Stata 17.0 generated SVG file (http://www.stata.com) -->

<svg version="1.1" width="5.500in" height="4.000in" viewBox="0 0 3960 2880" xmlns="http://www.w3.org/2000/svg" xmlns:xlink="http://www.w3.org/1999/xlink">
	<desc>Stata Graph - graph14</desc>
	<rect x="0" y="0" width="3960" height="2880" style="fill:#EAF2F3;stroke:none"/>
	<rect x="0.00" y="0.00" width="3959.88" height="2880.00" style="fill:#EAF2F3"/>
	<rect x="2.88" y="2.88" width="3954.12" height="2874.24" style="fill:none;stroke:#EAF2F3;stroke-width:5.76"/>
	<rect x="390.80" y="261.37" width="3468.22" height="1972.27" style="fill:#FFFFFF"/>
	<rect x="393.68" y="264.25" width="3462.46" height="1966.51" style="fill:none;stroke:#FFFFFF;stroke-width:5.76"/>
	<line x1="390.80" y1="2101.71" x2="3859.02" y2="2101.71" style="stroke:#EAF2F3;stroke-width:8.64"/>
	<line x1="390.80" y1="1760.03" x2="3859.02" y2="1760.03" style="stroke:#EAF2F3;stroke-width:8.64"/>
	<line x1="390.80" y1="1418.47" x2="3859.02" y2="1418.47" style="stroke:#EAF2F3;stroke-width:8.64"/>
	<line x1="390.80" y1="1076.78" x2="3859.02" y2="1076.78" style="stroke:#EAF2F3;stroke-width:8.64"/>
	<line x1="390.80" y1="735.22" x2="3859.02" y2="735.22" style="stroke:#EAF2F3;stroke-width:8.64"/>
	<line x1="390.80" y1="393.54" x2="3859.02" y2="393.54" style="stroke:#EAF2F3;stroke-width:8.64"/>
	<line x1="454.16" y1="767.77" x2="454.16" y2="767.40" style="stroke:#1A476F;stroke-width:8.64"/>
	<line x1="432.14" y1="767.40" x2="476.19" y2="767.40" stroke-linecap="round" style="stroke:#1A476F;stroke-width:8.64"/>
	<line x1="432.14" y1="767.77" x2="476.19" y2="767.77" stroke-linecap="round" style="stroke:#1A476F;stroke-width:8.64"/>
	<line x1="871.82" y1="838.06" x2="871.82" y2="837.94" style="stroke:#1A476F;stroke-width:8.64"/>
	<line x1="849.79" y1="837.94" x2="893.85" y2="837.94" stroke-linecap="round" style="stroke:#1A476F;stroke-width:8.64"/>
	<line x1="849.79" y1="838.06" x2="893.85" y2="838.06" stroke-linecap="round" style="stroke:#1A476F;stroke-width:8.64"/>
	<line x1="1289.47" y1="938.43" x2="1289.47" y2="938.30" style="stroke:#1A476F;stroke-width:8.64"/>
	<line x1="1267.45" y1="938.30" x2="1311.50" y2="938.30" stroke-linecap="round" style="stroke:#1A476F;stroke-width:8.64"/>
	<line x1="1267.45" y1="938.43" x2="1311.50" y2="938.43" stroke-linecap="round" style="stroke:#1A476F;stroke-width:8.64"/>
	<line x1="1707.26" y1="1068.74" x2="1707.26" y2="1068.61" style="stroke:#1A476F;stroke-width:8.64"/>
	<line x1="1685.23" y1="1068.61" x2="1729.28" y2="1068.61" stroke-linecap="round" style="stroke:#1A476F;stroke-width:8.64"/>
	<line x1="1685.23" y1="1068.74" x2="1729.28" y2="1068.74" stroke-linecap="round" style="stroke:#1A476F;stroke-width:8.64"/>
	<line x1="2124.91" y1="1229.12" x2="2124.91" y2="1229.00" style="stroke:#1A476F;stroke-width:8.64"/>
	<line x1="2102.88" y1="1229.00" x2="2146.94" y2="1229.00" stroke-linecap="round" style="stroke:#1A476F;stroke-width:8.64"/>
	<line x1="2102.88" y1="1229.12" x2="2146.94" y2="1229.12" stroke-linecap="round" style="stroke:#1A476F;stroke-width:8.64"/>
	<line x1="2542.57" y1="1419.46" x2="2542.57" y2="1419.33" style="stroke:#1A476F;stroke-width:8.64"/>
	<line x1="2520.54" y1="1419.33" x2="2564.59" y2="1419.33" stroke-linecap="round" style="stroke:#1A476F;stroke-width:8.64"/>
	<line x1="2520.54" y1="1419.46" x2="2564.59" y2="1419.46" stroke-linecap="round" style="stroke:#1A476F;stroke-width:8.64"/>
	<line x1="2960.35" y1="1639.74" x2="2960.35" y2="1639.61" style="stroke:#1A476F;stroke-width:8.64"/>
	<line x1="2938.32" y1="1639.61" x2="2982.38" y2="1639.61" stroke-linecap="round" style="stroke:#1A476F;stroke-width:8.64"/>
	<line x1="2938.32" y1="1639.74" x2="2982.38" y2="1639.74" stroke-linecap="round" style="stroke:#1A476F;stroke-width:8.64"/>
	<line x1="3378.00" y1="1889.97" x2="3378.00" y2="1889.85" style="stroke:#1A476F;stroke-width:8.64"/>
	<line x1="3355.98" y1="1889.85" x2="3400.03" y2="1889.85" stroke-linecap="round" style="stroke:#1A476F;stroke-width:8.64"/>
	<line x1="3355.98" y1="1889.97" x2="3400.03" y2="1889.97" stroke-linecap="round" style="stroke:#1A476F;stroke-width:8.64"/>
	<line x1="3795.66" y1="2170.27" x2="3795.66" y2="2170.02" style="stroke:#1A476F;stroke-width:8.64"/>
	<line x1="3773.63" y1="2170.02" x2="3817.69" y2="2170.02" stroke-linecap="round" style="stroke:#1A476F;stroke-width:8.64"/>
	<line x1="3773.63" y1="2170.27" x2="3817.69" y2="2170.27" stroke-linecap="round" style="stroke:#1A476F;stroke-width:8.64"/>
	<line x1="454.16" y1="325.10" x2="454.16" y2="324.73" style="stroke:#90353B;stroke-width:8.64"/>
	<line x1="432.14" y1="324.73" x2="476.19" y2="324.73" stroke-linecap="round" style="stroke:#90353B;stroke-width:8.64"/>
	<line x1="432.14" y1="325.10" x2="476.19" y2="325.10" stroke-linecap="round" style="stroke:#90353B;stroke-width:8.64"/>
	<line x1="871.82" y1="370.40" x2="871.82" y2="370.02" style="stroke:#90353B;stroke-width:8.64"/>
	<line x1="849.79" y1="370.02" x2="893.85" y2="370.02" stroke-linecap="round" style="stroke:#90353B;stroke-width:8.64"/>
	<line x1="849.79" y1="370.40" x2="893.85" y2="370.40" stroke-linecap="round" style="stroke:#90353B;stroke-width:8.64"/>
	<line x1="1289.47" y1="445.51" x2="1289.47" y2="445.27" style="stroke:#90353B;stroke-width:8.64"/>
	<line x1="1267.45" y1="445.27" x2="1311.50" y2="445.27" stroke-linecap="round" style="stroke:#90353B;stroke-width:8.64"/>
	<line x1="1267.45" y1="445.51" x2="1311.50" y2="445.51" stroke-linecap="round" style="stroke:#90353B;stroke-width:8.64"/>
	<line x1="1707.26" y1="550.70" x2="1707.26" y2="550.58" style="stroke:#90353B;stroke-width:8.64"/>
	<line x1="1685.23" y1="550.58" x2="1729.28" y2="550.58" stroke-linecap="round" style="stroke:#90353B;stroke-width:8.64"/>
	<line x1="1685.23" y1="550.70" x2="1729.28" y2="550.70" stroke-linecap="round" style="stroke:#90353B;stroke-width:8.64"/>
	<line x1="2124.91" y1="685.97" x2="2124.91" y2="685.72" style="stroke:#90353B;stroke-width:8.64"/>
	<line x1="2102.88" y1="685.72" x2="2146.94" y2="685.72" stroke-linecap="round" style="stroke:#90353B;stroke-width:8.64"/>
	<line x1="2102.88" y1="685.97" x2="2146.94" y2="685.97" stroke-linecap="round" style="stroke:#90353B;stroke-width:8.64"/>
	<line x1="2542.57" y1="851.06" x2="2542.57" y2="850.93" style="stroke:#90353B;stroke-width:8.64"/>
	<line x1="2520.54" y1="850.93" x2="2564.59" y2="850.93" stroke-linecap="round" style="stroke:#90353B;stroke-width:8.64"/>
	<line x1="2520.54" y1="851.06" x2="2564.59" y2="851.06" stroke-linecap="round" style="stroke:#90353B;stroke-width:8.64"/>
	<line x1="2960.35" y1="1046.22" x2="2960.35" y2="1046.09" style="stroke:#90353B;stroke-width:8.64"/>
	<line x1="2938.32" y1="1046.09" x2="2982.38" y2="1046.09" stroke-linecap="round" style="stroke:#90353B;stroke-width:8.64"/>
	<line x1="2938.32" y1="1046.22" x2="2982.38" y2="1046.22" stroke-linecap="round" style="stroke:#90353B;stroke-width:8.64"/>
	<line x1="3378.00" y1="1271.45" x2="3378.00" y2="1271.20" style="stroke:#90353B;stroke-width:8.64"/>
	<line x1="3355.98" y1="1271.20" x2="3400.03" y2="1271.20" stroke-linecap="round" style="stroke:#90353B;stroke-width:8.64"/>
	<line x1="3355.98" y1="1271.45" x2="3400.03" y2="1271.45" stroke-linecap="round" style="stroke:#90353B;stroke-width:8.64"/>
	<line x1="3795.66" y1="1526.63" x2="3795.66" y2="1526.26" style="stroke:#90353B;stroke-width:8.64"/>
	<line x1="3773.63" y1="1526.26" x2="3817.69" y2="1526.26" stroke-linecap="round" style="stroke:#90353B;stroke-width:8.64"/>
	<line x1="3773.63" y1="1526.63" x2="3817.69" y2="1526.63" stroke-linecap="round" style="stroke:#90353B;stroke-width:8.64"/>
	<path d=" M454.04 767.65 L871.82 838.06 L1289.47 938.43 L1707.13 1068.74 L2124.91 1229.12 L2542.57 1419.46 L2960.22 1639.74 L3378.00 1889.97 L3795.66 2170.27" stroke-linejoin="round" style="fill:none;stroke:#1A476F;stroke-width:8.64"/>
	<circle cx="454.04" cy="767.65" r="26.35" style="fill:#1A476F"/>
	<circle cx="454.04" cy="767.65" r="22.03" style="fill:none;stroke:#1A476F;stroke-width:8.64"/>
	<circle cx="871.82" cy="838.06" r="26.35" style="fill:#1A476F"/>
	<circle cx="871.82" cy="838.06" r="22.03" style="fill:none;stroke:#1A476F;stroke-width:8.64"/>
	<circle cx="1289.47" cy="938.43" r="26.35" style="fill:#1A476F"/>
	<circle cx="1289.47" cy="938.43" r="22.03" style="fill:none;stroke:#1A476F;stroke-width:8.64"/>
	<circle cx="1707.13" cy="1068.74" r="26.35" style="fill:#1A476F"/>
	<circle cx="1707.13" cy="1068.74" r="22.03" style="fill:none;stroke:#1A476F;stroke-width:8.64"/>
	<circle cx="2124.91" cy="1229.12" r="26.35" style="fill:#1A476F"/>
	<circle cx="2124.91" cy="1229.12" r="22.03" style="fill:none;stroke:#1A476F;stroke-width:8.64"/>
	<circle cx="2542.57" cy="1419.46" r="26.35" style="fill:#1A476F"/>
	<circle cx="2542.57" cy="1419.46" r="22.03" style="fill:none;stroke:#1A476F;stroke-width:8.64"/>
	<circle cx="2960.22" cy="1639.74" r="26.35" style="fill:#1A476F"/>
	<circle cx="2960.22" cy="1639.74" r="22.03" style="fill:none;stroke:#1A476F;stroke-width:8.64"/>
	<circle cx="3378.00" cy="1889.97" r="26.35" style="fill:#1A476F"/>
	<circle cx="3378.00" cy="1889.97" r="22.03" style="fill:none;stroke:#1A476F;stroke-width:8.64"/>
	<circle cx="3795.66" cy="2170.27" r="26.35" style="fill:#1A476F"/>
	<circle cx="3795.66" cy="2170.27" r="22.03" style="fill:none;stroke:#1A476F;stroke-width:8.64"/>
	<path d=" M454.04 324.98 L871.82 370.27 L1289.47 445.51 L1707.13 550.70 L2124.91 685.97 L2542.57 851.06 L2960.22 1046.22 L3378.00 1271.32 L3795.66 1526.50" stroke-linejoin="round" style="fill:none;stroke:#90353B;stroke-width:8.64"/>
	<circle cx="454.04" cy="324.98" r="26.35" style="fill:#90353B"/>
	<circle cx="454.04" cy="324.98" r="22.03" style="fill:none;stroke:#90353B;stroke-width:8.64"/>
	<circle cx="871.82" cy="370.27" r="26.35" style="fill:#90353B"/>
	<circle cx="871.82" cy="370.27" r="22.03" style="fill:none;stroke:#90353B;stroke-width:8.64"/>
	<circle cx="1289.47" cy="445.51" r="26.35" style="fill:#90353B"/>
	<circle cx="1289.47" cy="445.51" r="22.03" style="fill:none;stroke:#90353B;stroke-width:8.64"/>
	<circle cx="1707.13" cy="550.70" r="26.35" style="fill:#90353B"/>
	<circle cx="1707.13" cy="550.70" r="22.03" style="fill:none;stroke:#90353B;stroke-width:8.64"/>
	<circle cx="2124.91" cy="685.97" r="26.35" style="fill:#90353B"/>
	<circle cx="2124.91" cy="685.97" r="22.03" style="fill:none;stroke:#90353B;stroke-width:8.64"/>
	<circle cx="2542.57" cy="851.06" r="26.35" style="fill:#90353B"/>
	<circle cx="2542.57" cy="851.06" r="22.03" style="fill:none;stroke:#90353B;stroke-width:8.64"/>
	<circle cx="2960.22" cy="1046.22" r="26.35" style="fill:#90353B"/>
	<circle cx="2960.22" cy="1046.22" r="22.03" style="fill:none;stroke:#90353B;stroke-width:8.64"/>
	<circle cx="3378.00" cy="1271.32" r="26.35" style="fill:#90353B"/>
	<circle cx="3378.00" cy="1271.32" r="22.03" style="fill:none;stroke:#90353B;stroke-width:8.64"/>
	<circle cx="3795.66" cy="1526.50" r="26.35" style="fill:#90353B"/>
	<circle cx="3795.66" cy="1526.50" r="22.03" style="fill:none;stroke:#90353B;stroke-width:8.64"/>
	<line x1="390.80" y1="2233.63" x2="390.80" y2="261.37" style="stroke:#000000;stroke-width:5.76"/>
	<line x1="390.80" y1="2101.71" x2="350.83" y2="2101.71" style="stroke:#000000;stroke-width:5.76"/>
	<text x="300.72" y="2101.71" style="font-family:'Helvetica';font-size:99.99px;fill:#000000" transform="rotate(-90 300.72,2101.71)" text-anchor="middle">.5</text>
	<line x1="390.80" y1="1760.03" x2="350.83" y2="1760.03" style="stroke:#000000;stroke-width:5.76"/>
	<text x="300.72" y="1760.03" style="font-family:'Helvetica';font-size:99.99px;fill:#000000" transform="rotate(-90 300.72,1760.03)" text-anchor="middle">.6</text>
	<line x1="390.80" y1="1418.47" x2="350.83" y2="1418.47" style="stroke:#000000;stroke-width:5.76"/>
	<text x="300.72" y="1418.47" style="font-family:'Helvetica';font-size:99.99px;fill:#000000" transform="rotate(-90 300.72,1418.47)" text-anchor="middle">.7</text>
	<line x1="390.80" y1="1076.78" x2="350.83" y2="1076.78" style="stroke:#000000;stroke-width:5.76"/>
	<text x="300.72" y="1076.78" style="font-family:'Helvetica';font-size:99.99px;fill:#000000" transform="rotate(-90 300.72,1076.78)" text-anchor="middle">.8</text>
	<line x1="390.80" y1="735.22" x2="350.83" y2="735.22" style="stroke:#000000;stroke-width:5.76"/>
	<text x="300.72" y="735.22" style="font-family:'Helvetica';font-size:99.99px;fill:#000000" transform="rotate(-90 300.72,735.22)" text-anchor="middle">.9</text>
	<line x1="390.80" y1="393.54" x2="350.83" y2="393.54" style="stroke:#000000;stroke-width:5.76"/>
	<text x="300.72" y="393.54" style="font-family:'Helvetica';font-size:99.99px;fill:#000000" transform="rotate(-90 300.72,393.54)" text-anchor="middle">1</text>
	<text x="190.71" y="1247.56" style="font-family:'Helvetica';font-size:99.99px;fill:#000000" transform="rotate(-90 190.71,1247.56)" text-anchor="middle">Fitted Fitness</text>
	<line x1="390.80" y1="2233.63" x2="3859.02" y2="2233.63" style="stroke:#000000;stroke-width:5.76"/>
	<line x1="454.16" y1="2233.63" x2="454.16" y2="2273.73" style="stroke:#000000;stroke-width:5.76"/>
	<text x="454.16" y="2363.59" style="font-family:'Helvetica';font-size:99.99px;fill:#000000" text-anchor="middle">0</text>
	<line x1="871.82" y1="2233.63" x2="871.82" y2="2273.73" style="stroke:#000000;stroke-width:5.76"/>
	<text x="871.82" y="2363.59" style="font-family:'Helvetica';font-size:99.99px;fill:#000000" text-anchor="middle">.25</text>
	<line x1="1289.47" y1="2233.63" x2="1289.47" y2="2273.73" style="stroke:#000000;stroke-width:5.76"/>
	<text x="1289.47" y="2363.59" style="font-family:'Helvetica';font-size:99.99px;fill:#000000" text-anchor="middle">.5</text>
	<line x1="1707.26" y1="2233.63" x2="1707.26" y2="2273.73" style="stroke:#000000;stroke-width:5.76"/>
	<text x="1707.26" y="2363.59" style="font-family:'Helvetica';font-size:99.99px;fill:#000000" text-anchor="middle">.75</text>
	<line x1="2124.91" y1="2233.63" x2="2124.91" y2="2273.73" style="stroke:#000000;stroke-width:5.76"/>
	<text x="2124.91" y="2363.59" style="font-family:'Helvetica';font-size:99.99px;fill:#000000" text-anchor="middle">1</text>
	<line x1="2542.57" y1="2233.63" x2="2542.57" y2="2273.73" style="stroke:#000000;stroke-width:5.76"/>
	<text x="2542.57" y="2363.59" style="font-family:'Helvetica';font-size:99.99px;fill:#000000" text-anchor="middle">1.25</text>
	<line x1="2960.35" y1="2233.63" x2="2960.35" y2="2273.73" style="stroke:#000000;stroke-width:5.76"/>
	<text x="2960.35" y="2363.59" style="font-family:'Helvetica';font-size:99.99px;fill:#000000" text-anchor="middle">1.5</text>
	<line x1="3378.00" y1="2233.63" x2="3378.00" y2="2273.73" style="stroke:#000000;stroke-width:5.76"/>
	<text x="3378.00" y="2363.59" style="font-family:'Helvetica';font-size:99.99px;fill:#000000" text-anchor="middle">1.75</text>
	<line x1="3795.66" y1="2233.63" x2="3795.66" y2="2273.73" style="stroke:#000000;stroke-width:5.76"/>
	<text x="3795.66" y="2363.59" style="font-family:'Helvetica';font-size:99.99px;fill:#000000" text-anchor="middle">2</text>
	<text x="2124.91" y="2473.60" style="font-family:'Helvetica';font-size:99.99px;fill:#000000" text-anchor="middle">Scalar Mutation Rate</text>
	<rect x="880.11" y="2558.24" width="2489.73" height="186.37" style="fill:#FFFFFF"/>
	<rect x="882.99" y="2561.12" width="2483.97" height="180.61" style="fill:none;stroke:#000000;stroke-width:5.76"/>
	<line x1="923.30" y1="2651.43" x2="1297.64" y2="2651.43" style="stroke:#1A476F;stroke-width:8.64"/>
	<circle cx="1110.53" cy="2651.43" r="26.35" style="fill:#1A476F"/>
	<circle cx="1110.53" cy="2651.43" r="22.03" style="fill:none;stroke:#1A476F;stroke-width:8.64"/>
	<line x1="2145.33" y1="2651.43" x2="2519.80" y2="2651.43" style="stroke:#90353B;stroke-width:8.64"/>
	<circle cx="2332.56" cy="2651.43" r="26.35" style="fill:#90353B"/>
	<circle cx="2332.56" cy="2651.43" r="22.03" style="fill:none;stroke:#90353B;stroke-width:8.64"/>
	<text x="1357.66" y="2686.46" style="font-family:'Helvetica';font-size:99.99px;fill:#000000">No Correction</text>
	<text x="2579.82" y="2686.46" style="font-family:'Helvetica';font-size:99.99px;fill:#000000">Error Correction</text>
	<text x="1980.00" y="206.19" style="font-family:'Helvetica';font-size:125.98px;fill:#1E2D53" text-anchor="middle">Panel C</text>
</svg>
