<?xml version="1.0" encoding="UTF-8" standalone="no"?>
<!-- This is a Stata 17.0 generated SVG file (http://www.stata.com) -->

<svg version="1.1" width="5.500in" height="4.000in" viewBox="0 0 3960 2880" xmlns="http://www.w3.org/2000/svg" xmlns:xlink="http://www.w3.org/1999/xlink">
	<desc>Stata Graph - graph15</desc>
	<rect x="0" y="0" width="3960" height="2880" style="fill:#EAF2F3;stroke:none"/>
	<rect x="0.00" y="0.00" width="3959.88" height="2880.00" style="fill:#EAF2F3"/>
	<rect x="2.88" y="2.88" width="3954.12" height="2874.24" style="fill:none;stroke:#EAF2F3;stroke-width:5.76"/>
	<rect x="390.80" y="261.37" width="3468.22" height="1972.27" style="fill:#FFFFFF"/>
	<rect x="393.68" y="264.25" width="3462.46" height="1966.51" style="fill:none;stroke:#FFFFFF;stroke-width:5.76"/>
	<line x1="390.80" y1="2170.27" x2="3859.02" y2="2170.27" style="stroke:#EAF2F3;stroke-width:8.64"/>
	<line x1="390.80" y1="1823.02" x2="3859.02" y2="1823.02" style="stroke:#EAF2F3;stroke-width:8.64"/>
	<line x1="390.80" y1="1475.64" x2="3859.02" y2="1475.64" style="stroke:#EAF2F3;stroke-width:8.64"/>
	<line x1="390.80" y1="1128.26" x2="3859.02" y2="1128.26" style="stroke:#EAF2F3;stroke-width:8.64"/>
	<line x1="390.80" y1="781.01" x2="3859.02" y2="781.01" style="stroke:#EAF2F3;stroke-width:8.64"/>
	<line x1="390.80" y1="433.63" x2="3859.02" y2="433.63" style="stroke:#EAF2F3;stroke-width:8.64"/>
	<line x1="454.16" y1="426.83" x2="454.16" y2="423.86" style="stroke:#1A476F;stroke-width:8.64"/>
	<line x1="432.14" y1="423.86" x2="476.19" y2="423.86" stroke-linecap="round" style="stroke:#1A476F;stroke-width:8.64"/>
	<line x1="432.14" y1="426.83" x2="476.19" y2="426.83" stroke-linecap="round" style="stroke:#1A476F;stroke-width:8.64"/>
	<line x1="871.82" y1="557.51" x2="871.82" y2="555.53" style="stroke:#1A476F;stroke-width:8.64"/>
	<line x1="849.79" y1="555.53" x2="893.85" y2="555.53" stroke-linecap="round" style="stroke:#1A476F;stroke-width:8.64"/>
	<line x1="849.79" y1="557.51" x2="893.85" y2="557.51" stroke-linecap="round" style="stroke:#1A476F;stroke-width:8.64"/>
	<line x1="1289.47" y1="707.01" x2="1289.47" y2="705.64" style="stroke:#1A476F;stroke-width:8.64"/>
	<line x1="1267.45" y1="705.64" x2="1311.50" y2="705.64" stroke-linecap="round" style="stroke:#1A476F;stroke-width:8.64"/>
	<line x1="1267.45" y1="707.01" x2="1311.50" y2="707.01" stroke-linecap="round" style="stroke:#1A476F;stroke-width:8.64"/>
	<line x1="1707.26" y1="875.31" x2="1707.26" y2="874.20" style="stroke:#1A476F;stroke-width:8.64"/>
	<line x1="1685.23" y1="874.20" x2="1729.28" y2="874.20" stroke-linecap="round" style="stroke:#1A476F;stroke-width:8.64"/>
	<line x1="1685.23" y1="875.31" x2="1729.28" y2="875.31" stroke-linecap="round" style="stroke:#1A476F;stroke-width:8.64"/>
	<line x1="2124.91" y1="1062.18" x2="2124.91" y2="1061.19" style="stroke:#1A476F;stroke-width:8.64"/>
	<line x1="2102.88" y1="1061.19" x2="2146.94" y2="1061.19" stroke-linecap="round" style="stroke:#1A476F;stroke-width:8.64"/>
	<line x1="2102.88" y1="1062.18" x2="2146.94" y2="1062.18" stroke-linecap="round" style="stroke:#1A476F;stroke-width:8.64"/>
	<line x1="2542.57" y1="1267.73" x2="2542.57" y2="1266.99" style="stroke:#1A476F;stroke-width:8.64"/>
	<line x1="2520.54" y1="1266.99" x2="2564.59" y2="1266.99" stroke-linecap="round" style="stroke:#1A476F;stroke-width:8.64"/>
	<line x1="2520.54" y1="1267.73" x2="2564.59" y2="1267.73" stroke-linecap="round" style="stroke:#1A476F;stroke-width:8.64"/>
	<line x1="2960.35" y1="1492.10" x2="2960.35" y2="1491.11" style="stroke:#1A476F;stroke-width:8.64"/>
	<line x1="2938.32" y1="1491.11" x2="2982.38" y2="1491.11" stroke-linecap="round" style="stroke:#1A476F;stroke-width:8.64"/>
	<line x1="2938.32" y1="1492.10" x2="2982.38" y2="1492.10" stroke-linecap="round" style="stroke:#1A476F;stroke-width:8.64"/>
	<line x1="3378.00" y1="1735.40" x2="3378.00" y2="1733.67" style="stroke:#1A476F;stroke-width:8.64"/>
	<line x1="3355.98" y1="1733.67" x2="3400.03" y2="1733.67" stroke-linecap="round" style="stroke:#1A476F;stroke-width:8.64"/>
	<line x1="3355.98" y1="1735.40" x2="3400.03" y2="1735.40" stroke-linecap="round" style="stroke:#1A476F;stroke-width:8.64"/>
	<line x1="3795.66" y1="1997.51" x2="3795.66" y2="1994.42" style="stroke:#1A476F;stroke-width:8.64"/>
	<line x1="3773.63" y1="1994.42" x2="3817.69" y2="1994.42" stroke-linecap="round" style="stroke:#1A476F;stroke-width:8.64"/>
	<line x1="3773.63" y1="1997.51" x2="3817.69" y2="1997.51" stroke-linecap="round" style="stroke:#1A476F;stroke-width:8.64"/>
	<line x1="454.16" y1="328.44" x2="454.16" y2="324.73" style="stroke:#90353B;stroke-width:8.64"/>
	<line x1="432.14" y1="324.73" x2="476.19" y2="324.73" stroke-linecap="round" style="stroke:#90353B;stroke-width:8.64"/>
	<line x1="432.14" y1="328.44" x2="476.19" y2="328.44" stroke-linecap="round" style="stroke:#90353B;stroke-width:8.64"/>
	<line x1="871.82" y1="393.29" x2="871.82" y2="390.44" style="stroke:#90353B;stroke-width:8.64"/>
	<line x1="849.79" y1="390.44" x2="893.85" y2="390.44" stroke-linecap="round" style="stroke:#90353B;stroke-width:8.64"/>
	<line x1="849.79" y1="393.29" x2="893.85" y2="393.29" stroke-linecap="round" style="stroke:#90353B;stroke-width:8.64"/>
	<line x1="1289.47" y1="476.82" x2="1289.47" y2="474.72" style="stroke:#90353B;stroke-width:8.64"/>
	<line x1="1267.45" y1="474.72" x2="1311.50" y2="474.72" stroke-linecap="round" style="stroke:#90353B;stroke-width:8.64"/>
	<line x1="1267.45" y1="476.82" x2="1311.50" y2="476.82" stroke-linecap="round" style="stroke:#90353B;stroke-width:8.64"/>
	<line x1="1707.26" y1="579.17" x2="1707.26" y2="577.44" style="stroke:#90353B;stroke-width:8.64"/>
	<line x1="1685.23" y1="577.44" x2="1729.28" y2="577.44" stroke-linecap="round" style="stroke:#90353B;stroke-width:8.64"/>
	<line x1="1685.23" y1="579.17" x2="1729.28" y2="579.17" stroke-linecap="round" style="stroke:#90353B;stroke-width:8.64"/>
	<line x1="2124.91" y1="700.20" x2="2124.91" y2="698.71" style="stroke:#90353B;stroke-width:8.64"/>
	<line x1="2102.88" y1="698.71" x2="2146.94" y2="698.71" stroke-linecap="round" style="stroke:#90353B;stroke-width:8.64"/>
	<line x1="2102.88" y1="700.20" x2="2146.94" y2="700.20" stroke-linecap="round" style="stroke:#90353B;stroke-width:8.64"/>
	<line x1="2542.57" y1="839.92" x2="2542.57" y2="838.56" style="stroke:#90353B;stroke-width:8.64"/>
	<line x1="2520.54" y1="838.56" x2="2564.59" y2="838.56" stroke-linecap="round" style="stroke:#90353B;stroke-width:8.64"/>
	<line x1="2520.54" y1="839.92" x2="2564.59" y2="839.92" stroke-linecap="round" style="stroke:#90353B;stroke-width:8.64"/>
	<line x1="2960.35" y1="998.32" x2="2960.35" y2="996.96" style="stroke:#90353B;stroke-width:8.64"/>
	<line x1="2938.32" y1="996.96" x2="2982.38" y2="996.96" stroke-linecap="round" style="stroke:#90353B;stroke-width:8.64"/>
	<line x1="2938.32" y1="998.32" x2="2982.38" y2="998.32" stroke-linecap="round" style="stroke:#90353B;stroke-width:8.64"/>
	<line x1="3378.00" y1="1175.66" x2="3378.00" y2="1173.56" style="stroke:#90353B;stroke-width:8.64"/>
	<line x1="3355.98" y1="1173.56" x2="3400.03" y2="1173.56" stroke-linecap="round" style="stroke:#90353B;stroke-width:8.64"/>
	<line x1="3355.98" y1="1175.66" x2="3400.03" y2="1175.66" stroke-linecap="round" style="stroke:#90353B;stroke-width:8.64"/>
	<line x1="3795.66" y1="1371.94" x2="3795.66" y2="1368.47" style="stroke:#90353B;stroke-width:8.64"/>
	<line x1="3773.63" y1="1368.47" x2="3817.69" y2="1368.47" stroke-linecap="round" style="stroke:#90353B;stroke-width:8.64"/>
	<line x1="3773.63" y1="1371.94" x2="3817.69" y2="1371.94" stroke-linecap="round" style="stroke:#90353B;stroke-width:8.64"/>
	<path d=" M454.04 425.34 L871.82 556.52 L1289.47 706.39 L1707.13 874.82 L2124.91 1061.81 L2542.57 1267.49 L2960.22 1491.73 L3378.00 1734.53 L3795.66 1996.03" stroke-linejoin="round" style="fill:none;stroke:#1A476F;stroke-width:8.64"/>
	<circle cx="454.04" cy="425.34" r="26.35" style="fill:#1A476F"/>
	<circle cx="454.04" cy="425.34" r="22.03" style="fill:none;stroke:#1A476F;stroke-width:8.64"/>
	<circle cx="871.82" cy="556.52" r="26.35" style="fill:#1A476F"/>
	<circle cx="871.82" cy="556.52" r="22.03" style="fill:none;stroke:#1A476F;stroke-width:8.64"/>
	<circle cx="1289.47" cy="706.39" r="26.35" style="fill:#1A476F"/>
	<circle cx="1289.47" cy="706.39" r="22.03" style="fill:none;stroke:#1A476F;stroke-width:8.64"/>
	<circle cx="1707.13" cy="874.82" r="26.35" style="fill:#1A476F"/>
	<circle cx="1707.13" cy="874.82" r="22.03" style="fill:none;stroke:#1A476F;stroke-width:8.64"/>
	<circle cx="2124.91" cy="1061.81" r="26.35" style="fill:#1A476F"/>
	<circle cx="2124.91" cy="1061.81" r="22.03" style="fill:none;stroke:#1A476F;stroke-width:8.64"/>
	<circle cx="2542.57" cy="1267.49" r="26.35" style="fill:#1A476F"/>
	<circle cx="2542.57" cy="1267.49" r="22.03" style="fill:none;stroke:#1A476F;stroke-width:8.64"/>
	<circle cx="2960.22" cy="1491.73" r="26.35" style="fill:#1A476F"/>
	<circle cx="2960.22" cy="1491.73" r="22.03" style="fill:none;stroke:#1A476F;stroke-width:8.64"/>
	<circle cx="3378.00" cy="1734.53" r="26.35" style="fill:#1A476F"/>
	<circle cx="3378.00" cy="1734.53" r="22.03" style="fill:none;stroke:#1A476F;stroke-width:8.64"/>
	<circle cx="3795.66" cy="1996.03" r="26.35" style="fill:#1A476F"/>
	<circle cx="3795.66" cy="1996.03" r="22.03" style="fill:none;stroke:#1A476F;stroke-width:8.64"/>
	<path d=" M454.04 326.59 L871.82 391.93 L1289.47 475.83 L1707.13 578.43 L2124.91 699.46 L2542.57 839.30 L2960.22 997.70 L3378.00 1174.67 L3795.66 1370.33" stroke-linejoin="round" style="fill:none;stroke:#90353B;stroke-width:8.64"/>
	<circle cx="454.04" cy="326.59" r="26.35" style="fill:#90353B"/>
	<circle cx="454.04" cy="326.59" r="22.03" style="fill:none;stroke:#90353B;stroke-width:8.64"/>
	<circle cx="871.82" cy="391.93" r="26.35" style="fill:#90353B"/>
	<circle cx="871.82" cy="391.93" r="22.03" style="fill:none;stroke:#90353B;stroke-width:8.64"/>
	<circle cx="1289.47" cy="475.83" r="26.35" style="fill:#90353B"/>
	<circle cx="1289.47" cy="475.83" r="22.03" style="fill:none;stroke:#90353B;stroke-width:8.64"/>
	<circle cx="1707.13" cy="578.43" r="26.35" style="fill:#90353B"/>
	<circle cx="1707.13" cy="578.43" r="22.03" style="fill:none;stroke:#90353B;stroke-width:8.64"/>
	<circle cx="2124.91" cy="699.46" r="26.35" style="fill:#90353B"/>
	<circle cx="2124.91" cy="699.46" r="22.03" style="fill:none;stroke:#90353B;stroke-width:8.64"/>
	<circle cx="2542.57" cy="839.30" r="26.35" style="fill:#90353B"/>
	<circle cx="2542.57" cy="839.30" r="22.03" style="fill:none;stroke:#90353B;stroke-width:8.64"/>
	<circle cx="2960.22" cy="997.70" r="26.35" style="fill:#90353B"/>
	<circle cx="2960.22" cy="997.70" r="22.03" style="fill:none;stroke:#90353B;stroke-width:8.64"/>
	<circle cx="3378.00" cy="1174.67" r="26.35" style="fill:#90353B"/>
	<circle cx="3378.00" cy="1174.67" r="22.03" style="fill:none;stroke:#90353B;stroke-width:8.64"/>
	<circle cx="3795.66" cy="1370.33" r="26.35" style="fill:#90353B"/>
	<circle cx="3795.66" cy="1370.33" r="22.03" style="fill:none;stroke:#90353B;stroke-width:8.64"/>
	<line x1="390.80" y1="2233.63" x2="390.80" y2="261.37" style="stroke:#000000;stroke-width:5.76"/>
	<line x1="390.80" y1="2170.27" x2="350.83" y2="2170.27" style="stroke:#000000;stroke-width:5.76"/>
	<text x="300.72" y="2170.27" style="font-family:'Helvetica';font-size:99.99px;fill:#000000" transform="rotate(-90 300.72,2170.27)" text-anchor="middle">-400</text>
	<line x1="390.80" y1="1823.02" x2="350.83" y2="1823.02" style="stroke:#000000;stroke-width:5.76"/>
	<text x="300.72" y="1823.02" style="font-family:'Helvetica';font-size:99.99px;fill:#000000" transform="rotate(-90 300.72,1823.02)" text-anchor="middle">-200</text>
	<line x1="390.80" y1="1475.64" x2="350.83" y2="1475.64" style="stroke:#000000;stroke-width:5.76"/>
	<text x="300.72" y="1475.64" style="font-family:'Helvetica';font-size:99.99px;fill:#000000" transform="rotate(-90 300.72,1475.64)" text-anchor="middle">0</text>
	<line x1="390.80" y1="1128.26" x2="350.83" y2="1128.26" style="stroke:#000000;stroke-width:5.76"/>
	<text x="300.72" y="1128.26" style="font-family:'Helvetica';font-size:99.99px;fill:#000000" transform="rotate(-90 300.72,1128.26)" text-anchor="middle">200</text>
	<line x1="390.80" y1="781.01" x2="350.83" y2="781.01" style="stroke:#000000;stroke-width:5.76"/>
	<text x="300.72" y="781.01" style="font-family:'Helvetica';font-size:99.99px;fill:#000000" transform="rotate(-90 300.72,781.01)" text-anchor="middle">400</text>
	<line x1="390.80" y1="433.63" x2="350.83" y2="433.63" style="stroke:#000000;stroke-width:5.76"/>
	<text x="300.72" y="433.63" style="font-family:'Helvetica';font-size:99.99px;fill:#000000" transform="rotate(-90 300.72,433.63)" text-anchor="middle">600</text>
	<text x="190.71" y="1247.56" style="font-family:'Helvetica';font-size:99.99px;fill:#000000" transform="rotate(-90 190.71,1247.56)" text-anchor="middle">Fitted Number of Fully Fit Replicators</text>
	<line x1="390.80" y1="2233.63" x2="3859.02" y2="2233.63" style="stroke:#000000;stroke-width:5.76"/>
	<line x1="454.16" y1="2233.63" x2="454.16" y2="2273.73" style="stroke:#000000;stroke-width:5.76"/>
	<text x="454.16" y="2363.59" style="font-family:'Helvetica';font-size:99.99px;fill:#000000" text-anchor="middle">0</text>
	<line x1="871.82" y1="2233.63" x2="871.82" y2="2273.73" style="stroke:#000000;stroke-width:5.76"/>
	<text x="871.82" y="2363.59" style="font-family:'Helvetica';font-size:99.99px;fill:#000000" text-anchor="middle">.25</text>
	<line x1="1289.47" y1="2233.63" x2="1289.47" y2="2273.73" style="stroke:#000000;stroke-width:5.76"/>
	<text x="1289.47" y="2363.59" style="font-family:'Helvetica';font-size:99.99px;fill:#000000" text-anchor="middle">.5</text>
	<line x1="1707.26" y1="2233.63" x2="1707.26" y2="2273.73" style="stroke:#000000;stroke-width:5.76"/>
	<text x="1707.26" y="2363.59" style="font-family:'Helvetica';font-size:99.99px;fill:#000000" text-anchor="middle">.75</text>
	<line x1="2124.91" y1="2233.63" x2="2124.91" y2="2273.73" style="stroke:#000000;stroke-width:5.76"/>
	<text x="2124.91" y="2363.59" style="font-family:'Helvetica';font-size:99.99px;fill:#000000" text-anchor="middle">1</text>
	<line x1="2542.57" y1="2233.63" x2="2542.57" y2="2273.73" style="stroke:#000000;stroke-width:5.76"/>
	<text x="2542.57" y="2363.59" style="font-family:'Helvetica';font-size:99.99px;fill:#000000" text-anchor="middle">1.25</text>
	<line x1="2960.35" y1="2233.63" x2="2960.35" y2="2273.73" style="stroke:#000000;stroke-width:5.76"/>
	<text x="2960.35" y="2363.59" style="font-family:'Helvetica';font-size:99.99px;fill:#000000" text-anchor="middle">1.5</text>
	<line x1="3378.00" y1="2233.63" x2="3378.00" y2="2273.73" style="stroke:#000000;stroke-width:5.76"/>
	<text x="3378.00" y="2363.59" style="font-family:'Helvetica';font-size:99.99px;fill:#000000" text-anchor="middle">1.75</text>
	<line x1="3795.66" y1="2233.63" x2="3795.66" y2="2273.73" style="stroke:#000000;stroke-width:5.76"/>
	<text x="3795.66" y="2363.59" style="font-family:'Helvetica';font-size:99.99px;fill:#000000" text-anchor="middle">2</text>
	<text x="2124.91" y="2473.60" style="font-family:'Helvetica';font-size:99.99px;fill:#000000" text-anchor="middle">Scalar Mutation Rate</text>
	<rect x="880.11" y="2558.24" width="2489.73" height="186.37" style="fill:#FFFFFF"/>
	<rect x="882.99" y="2561.12" width="2483.97" height="180.61" style="fill:none;stroke:#000000;stroke-width:5.76"/>
	<line x1="923.30" y1="2651.43" x2="1297.64" y2="2651.43" style="stroke:#1A476F;stroke-width:8.64"/>
	<circle cx="1110.53" cy="2651.43" r="26.35" style="fill:#1A476F"/>
	<circle cx="1110.53" cy="2651.43" r="22.03" style="fill:none;stroke:#1A476F;stroke-width:8.64"/>
	<line x1="2145.33" y1="2651.43" x2="2519.80" y2="2651.43" style="stroke:#90353B;stroke-width:8.64"/>
	<circle cx="2332.56" cy="2651.43" r="26.35" style="fill:#90353B"/>
	<circle cx="2332.56" cy="2651.43" r="22.03" style="fill:none;stroke:#90353B;stroke-width:8.64"/>
	<text x="1357.66" y="2686.46" style="font-family:'Helvetica';font-size:99.99px;fill:#000000">No Correction</text>
	<text x="2579.82" y="2686.46" style="font-family:'Helvetica';font-size:99.99px;fill:#000000">Error Correction</text>
	<text x="1980.00" y="206.19" style="font-family:'Helvetica';font-size:125.98px;fill:#1E2D53" text-anchor="middle">Panel D</text>
</svg>
