<?xml version="1.0" encoding="UTF-8" standalone="no"?>
<!-- This is a Stata 17.0 generated SVG file (http://www.stata.com) -->

<svg version="1.1" width="5.500in" height="4.000in" viewBox="0 0 3960 2880" xmlns="http://www.w3.org/2000/svg" xmlns:xlink="http://www.w3.org/1999/xlink">
	<desc>Stata Graph - graph11</desc>
	<rect x="0" y="0" width="3960" height="2880" style="fill:#EAF2F3;stroke:none"/>
	<rect x="0.00" y="0.00" width="3959.88" height="2880.00" style="fill:#EAF2F3"/>
	<rect x="2.88" y="2.88" width="3954.12" height="2874.24" style="fill:none;stroke:#EAF2F3;stroke-width:5.76"/>
	<rect x="390.80" y="261.37" width="3468.22" height="1972.27" style="fill:#FFFFFF"/>
	<rect x="393.68" y="264.25" width="3462.46" height="1966.51" style="fill:none;stroke:#FFFFFF;stroke-width:5.76"/>
	<line x1="390.80" y1="2170.27" x2="3859.02" y2="2170.27" style="stroke:#EAF2F3;stroke-width:8.64"/>
	<line x1="390.80" y1="1708.92" x2="3859.02" y2="1708.92" style="stroke:#EAF2F3;stroke-width:8.64"/>
	<line x1="390.80" y1="1247.56" x2="3859.02" y2="1247.56" style="stroke:#EAF2F3;stroke-width:8.64"/>
	<line x1="390.80" y1="786.08" x2="3859.02" y2="786.08" style="stroke:#EAF2F3;stroke-width:8.64"/>
	<line x1="390.80" y1="324.73" x2="3859.02" y2="324.73" style="stroke:#EAF2F3;stroke-width:8.64"/>
	<line x1="454.16" y1="2133.27" x2="454.16" y2="2133.15" style="stroke:#1A476F;stroke-width:8.64"/>
	<line x1="432.14" y1="2133.15" x2="476.19" y2="2133.15" stroke-linecap="round" style="stroke:#1A476F;stroke-width:8.64"/>
	<line x1="432.14" y1="2133.27" x2="476.19" y2="2133.27" stroke-linecap="round" style="stroke:#1A476F;stroke-width:8.64"/>
	<line x1="621.23" y1="2062.61" x2="621.23" y2="2062.48" style="stroke:#1A476F;stroke-width:8.64"/>
	<line x1="599.20" y1="2062.48" x2="643.25" y2="2062.48" stroke-linecap="round" style="stroke:#1A476F;stroke-width:8.64"/>
	<line x1="599.20" y1="2062.61" x2="643.25" y2="2062.61" stroke-linecap="round" style="stroke:#1A476F;stroke-width:8.64"/>
	<line x1="788.29" y1="1993.55" x2="788.29" y2="1993.43" style="stroke:#1A476F;stroke-width:8.64"/>
	<line x1="766.26" y1="1993.43" x2="810.32" y2="1993.43" stroke-linecap="round" style="stroke:#1A476F;stroke-width:8.64"/>
	<line x1="766.26" y1="1993.55" x2="810.32" y2="1993.55" stroke-linecap="round" style="stroke:#1A476F;stroke-width:8.64"/>
	<line x1="955.35" y1="1925.98" x2="955.35" y2="1925.86" style="stroke:#1A476F;stroke-width:8.64"/>
	<line x1="933.32" y1="1925.86" x2="977.38" y2="1925.86" stroke-linecap="round" style="stroke:#1A476F;stroke-width:8.64"/>
	<line x1="933.32" y1="1925.98" x2="977.38" y2="1925.98" stroke-linecap="round" style="stroke:#1A476F;stroke-width:8.64"/>
	<line x1="1122.41" y1="1859.90" x2="1122.41" y2="1859.77" style="stroke:#1A476F;stroke-width:8.64"/>
	<line x1="1100.39" y1="1859.77" x2="1144.44" y2="1859.77" stroke-linecap="round" style="stroke:#1A476F;stroke-width:8.64"/>
	<line x1="1100.39" y1="1859.90" x2="1144.44" y2="1859.90" stroke-linecap="round" style="stroke:#1A476F;stroke-width:8.64"/>
	<line x1="1289.47" y1="1795.42" x2="1289.47" y2="1795.30" style="stroke:#1A476F;stroke-width:8.64"/>
	<line x1="1267.45" y1="1795.30" x2="1311.50" y2="1795.30" stroke-linecap="round" style="stroke:#1A476F;stroke-width:8.64"/>
	<line x1="1267.45" y1="1795.42" x2="1311.50" y2="1795.42" stroke-linecap="round" style="stroke:#1A476F;stroke-width:8.64"/>
	<line x1="1456.66" y1="1732.43" x2="1456.66" y2="1732.43" style="stroke:#1A476F;stroke-width:8.64"/>
	<line x1="1434.63" y1="1732.43" x2="1478.69" y2="1732.43" stroke-linecap="round" style="stroke:#1A476F;stroke-width:8.64"/>
	<line x1="1434.63" y1="1732.43" x2="1478.69" y2="1732.43" stroke-linecap="round" style="stroke:#1A476F;stroke-width:8.64"/>
	<line x1="1623.72" y1="1671.05" x2="1623.72" y2="1671.05" style="stroke:#1A476F;stroke-width:8.64"/>
	<line x1="1601.70" y1="1671.05" x2="1645.75" y2="1671.05" stroke-linecap="round" style="stroke:#1A476F;stroke-width:8.64"/>
	<line x1="1601.70" y1="1671.05" x2="1645.75" y2="1671.05" stroke-linecap="round" style="stroke:#1A476F;stroke-width:8.64"/>
	<line x1="1790.79" y1="1611.28" x2="1790.79" y2="1611.28" style="stroke:#1A476F;stroke-width:8.64"/>
	<line x1="1768.76" y1="1611.28" x2="1812.81" y2="1611.28" stroke-linecap="round" style="stroke:#1A476F;stroke-width:8.64"/>
	<line x1="1768.76" y1="1611.28" x2="1812.81" y2="1611.28" stroke-linecap="round" style="stroke:#1A476F;stroke-width:8.64"/>
	<line x1="1957.85" y1="1552.99" x2="1957.85" y2="1552.99" style="stroke:#1A476F;stroke-width:8.64"/>
	<line x1="1935.82" y1="1552.99" x2="1979.88" y2="1552.99" stroke-linecap="round" style="stroke:#1A476F;stroke-width:8.64"/>
	<line x1="1935.82" y1="1552.99" x2="1979.88" y2="1552.99" stroke-linecap="round" style="stroke:#1A476F;stroke-width:8.64"/>
	<line x1="2124.91" y1="1496.31" x2="2124.91" y2="1496.18" style="stroke:#1A476F;stroke-width:8.64"/>
	<line x1="2102.88" y1="1496.18" x2="2146.94" y2="1496.18" stroke-linecap="round" style="stroke:#1A476F;stroke-width:8.64"/>
	<line x1="2102.88" y1="1496.31" x2="2146.94" y2="1496.31" stroke-linecap="round" style="stroke:#1A476F;stroke-width:8.64"/>
	<line x1="2291.97" y1="1441.11" x2="2291.97" y2="1441.11" style="stroke:#1A476F;stroke-width:8.64"/>
	<line x1="2269.95" y1="1441.11" x2="2314.00" y2="1441.11" stroke-linecap="round" style="stroke:#1A476F;stroke-width:8.64"/>
	<line x1="2269.95" y1="1441.11" x2="2314.00" y2="1441.11" stroke-linecap="round" style="stroke:#1A476F;stroke-width:8.64"/>
	<line x1="2459.04" y1="1387.53" x2="2459.04" y2="1387.40" style="stroke:#1A476F;stroke-width:8.64"/>
	<line x1="2437.01" y1="1387.40" x2="2481.06" y2="1387.40" stroke-linecap="round" style="stroke:#1A476F;stroke-width:8.64"/>
	<line x1="2437.01" y1="1387.53" x2="2481.06" y2="1387.53" stroke-linecap="round" style="stroke:#1A476F;stroke-width:8.64"/>
	<line x1="2626.22" y1="1335.43" x2="2626.22" y2="1335.30" style="stroke:#1A476F;stroke-width:8.64"/>
	<line x1="2604.20" y1="1335.30" x2="2648.25" y2="1335.30" stroke-linecap="round" style="stroke:#1A476F;stroke-width:8.64"/>
	<line x1="2604.20" y1="1335.43" x2="2648.25" y2="1335.43" stroke-linecap="round" style="stroke:#1A476F;stroke-width:8.64"/>
	<line x1="2793.29" y1="1284.94" x2="2793.29" y2="1284.81" style="stroke:#1A476F;stroke-width:8.64"/>
	<line x1="2771.26" y1="1284.81" x2="2815.31" y2="1284.81" stroke-linecap="round" style="stroke:#1A476F;stroke-width:8.64"/>
	<line x1="2771.26" y1="1284.94" x2="2815.31" y2="1284.94" stroke-linecap="round" style="stroke:#1A476F;stroke-width:8.64"/>
	<line x1="2960.35" y1="1235.93" x2="2960.35" y2="1235.81" style="stroke:#1A476F;stroke-width:8.64"/>
	<line x1="2938.32" y1="1235.81" x2="2982.38" y2="1235.81" stroke-linecap="round" style="stroke:#1A476F;stroke-width:8.64"/>
	<line x1="2938.32" y1="1235.93" x2="2982.38" y2="1235.93" stroke-linecap="round" style="stroke:#1A476F;stroke-width:8.64"/>
	<line x1="3127.41" y1="1188.53" x2="3127.41" y2="1188.41" style="stroke:#1A476F;stroke-width:8.64"/>
	<line x1="3105.38" y1="1188.41" x2="3149.44" y2="1188.41" stroke-linecap="round" style="stroke:#1A476F;stroke-width:8.64"/>
	<line x1="3105.38" y1="1188.53" x2="3149.44" y2="1188.53" stroke-linecap="round" style="stroke:#1A476F;stroke-width:8.64"/>
	<line x1="3294.47" y1="1142.62" x2="3294.47" y2="1142.62" style="stroke:#1A476F;stroke-width:8.64"/>
	<line x1="3272.45" y1="1142.62" x2="3316.50" y2="1142.62" stroke-linecap="round" style="stroke:#1A476F;stroke-width:8.64"/>
	<line x1="3272.45" y1="1142.62" x2="3316.50" y2="1142.62" stroke-linecap="round" style="stroke:#1A476F;stroke-width:8.64"/>
	<line x1="3461.54" y1="1098.32" x2="3461.54" y2="1098.19" style="stroke:#1A476F;stroke-width:8.64"/>
	<line x1="3439.51" y1="1098.19" x2="3483.56" y2="1098.19" stroke-linecap="round" style="stroke:#1A476F;stroke-width:8.64"/>
	<line x1="3439.51" y1="1098.32" x2="3483.56" y2="1098.32" stroke-linecap="round" style="stroke:#1A476F;stroke-width:8.64"/>
	<line x1="3628.60" y1="1055.50" x2="3628.60" y2="1055.50" style="stroke:#1A476F;stroke-width:8.64"/>
	<line x1="3606.57" y1="1055.50" x2="3650.63" y2="1055.50" stroke-linecap="round" style="stroke:#1A476F;stroke-width:8.64"/>
	<line x1="3606.57" y1="1055.50" x2="3650.63" y2="1055.50" stroke-linecap="round" style="stroke:#1A476F;stroke-width:8.64"/>
	<line x1="3795.66" y1="1014.29" x2="3795.66" y2="1014.29" style="stroke:#1A476F;stroke-width:8.64"/>
	<line x1="3773.63" y1="1014.29" x2="3817.69" y2="1014.29" stroke-linecap="round" style="stroke:#1A476F;stroke-width:8.64"/>
	<line x1="3773.63" y1="1014.29" x2="3817.69" y2="1014.29" stroke-linecap="round" style="stroke:#1A476F;stroke-width:8.64"/>
	<line x1="454.16" y1="2108.89" x2="454.16" y2="2108.77" style="stroke:#90353B;stroke-width:8.64"/>
	<line x1="432.14" y1="2108.77" x2="476.19" y2="2108.77" stroke-linecap="round" style="stroke:#90353B;stroke-width:8.64"/>
	<line x1="432.14" y1="2108.89" x2="476.19" y2="2108.89" stroke-linecap="round" style="stroke:#90353B;stroke-width:8.64"/>
	<line x1="621.23" y1="2013.85" x2="621.23" y2="2013.72" style="stroke:#90353B;stroke-width:8.64"/>
	<line x1="599.20" y1="2013.72" x2="643.25" y2="2013.72" stroke-linecap="round" style="stroke:#90353B;stroke-width:8.64"/>
	<line x1="599.20" y1="2013.85" x2="643.25" y2="2013.85" stroke-linecap="round" style="stroke:#90353B;stroke-width:8.64"/>
	<line x1="788.29" y1="1920.29" x2="788.29" y2="1920.29" style="stroke:#90353B;stroke-width:8.64"/>
	<line x1="766.26" y1="1920.29" x2="810.32" y2="1920.29" stroke-linecap="round" style="stroke:#90353B;stroke-width:8.64"/>
	<line x1="766.26" y1="1920.29" x2="810.32" y2="1920.29" stroke-linecap="round" style="stroke:#90353B;stroke-width:8.64"/>
	<line x1="955.35" y1="1828.34" x2="955.35" y2="1828.34" style="stroke:#90353B;stroke-width:8.64"/>
	<line x1="933.32" y1="1828.34" x2="977.38" y2="1828.34" stroke-linecap="round" style="stroke:#90353B;stroke-width:8.64"/>
	<line x1="933.32" y1="1828.34" x2="977.38" y2="1828.34" stroke-linecap="round" style="stroke:#90353B;stroke-width:8.64"/>
	<line x1="1122.41" y1="1738.00" x2="1122.41" y2="1737.88" style="stroke:#90353B;stroke-width:8.64"/>
	<line x1="1100.39" y1="1737.88" x2="1144.44" y2="1737.88" stroke-linecap="round" style="stroke:#90353B;stroke-width:8.64"/>
	<line x1="1100.39" y1="1738.00" x2="1144.44" y2="1738.00" stroke-linecap="round" style="stroke:#90353B;stroke-width:8.64"/>
	<line x1="1289.47" y1="1649.14" x2="1289.47" y2="1649.14" style="stroke:#90353B;stroke-width:8.64"/>
	<line x1="1267.45" y1="1649.14" x2="1311.50" y2="1649.14" stroke-linecap="round" style="stroke:#90353B;stroke-width:8.64"/>
	<line x1="1267.45" y1="1649.14" x2="1311.50" y2="1649.14" stroke-linecap="round" style="stroke:#90353B;stroke-width:8.64"/>
	<line x1="1456.66" y1="1561.90" x2="1456.66" y2="1561.77" style="stroke:#90353B;stroke-width:8.64"/>
	<line x1="1434.63" y1="1561.77" x2="1478.69" y2="1561.77" stroke-linecap="round" style="stroke:#90353B;stroke-width:8.64"/>
	<line x1="1434.63" y1="1561.90" x2="1478.69" y2="1561.90" stroke-linecap="round" style="stroke:#90353B;stroke-width:8.64"/>
	<line x1="1623.72" y1="1476.14" x2="1623.72" y2="1476.14" style="stroke:#90353B;stroke-width:8.64"/>
	<line x1="1601.70" y1="1476.14" x2="1645.75" y2="1476.14" stroke-linecap="round" style="stroke:#90353B;stroke-width:8.64"/>
	<line x1="1601.70" y1="1476.14" x2="1645.75" y2="1476.14" stroke-linecap="round" style="stroke:#90353B;stroke-width:8.64"/>
	<line x1="1790.79" y1="1391.98" x2="1790.79" y2="1391.86" style="stroke:#90353B;stroke-width:8.64"/>
	<line x1="1768.76" y1="1391.86" x2="1812.81" y2="1391.86" stroke-linecap="round" style="stroke:#90353B;stroke-width:8.64"/>
	<line x1="1768.76" y1="1391.98" x2="1812.81" y2="1391.98" stroke-linecap="round" style="stroke:#90353B;stroke-width:8.64"/>
	<line x1="1957.85" y1="1309.32" x2="1957.85" y2="1309.32" style="stroke:#90353B;stroke-width:8.64"/>
	<line x1="1935.82" y1="1309.32" x2="1979.88" y2="1309.32" stroke-linecap="round" style="stroke:#90353B;stroke-width:8.64"/>
	<line x1="1935.82" y1="1309.32" x2="1979.88" y2="1309.32" stroke-linecap="round" style="stroke:#90353B;stroke-width:8.64"/>
	<line x1="2124.91" y1="1228.26" x2="2124.91" y2="1228.13" style="stroke:#90353B;stroke-width:8.64"/>
	<line x1="2102.88" y1="1228.13" x2="2146.94" y2="1228.13" stroke-linecap="round" style="stroke:#90353B;stroke-width:8.64"/>
	<line x1="2102.88" y1="1228.26" x2="2146.94" y2="1228.26" stroke-linecap="round" style="stroke:#90353B;stroke-width:8.64"/>
	<line x1="2291.97" y1="1148.68" x2="2291.97" y2="1148.68" style="stroke:#90353B;stroke-width:8.64"/>
	<line x1="2269.95" y1="1148.68" x2="2314.00" y2="1148.68" stroke-linecap="round" style="stroke:#90353B;stroke-width:8.64"/>
	<line x1="2269.95" y1="1148.68" x2="2314.00" y2="1148.68" stroke-linecap="round" style="stroke:#90353B;stroke-width:8.64"/>
	<line x1="2459.04" y1="1070.72" x2="2459.04" y2="1070.72" style="stroke:#90353B;stroke-width:8.64"/>
	<line x1="2437.01" y1="1070.72" x2="2481.06" y2="1070.72" stroke-linecap="round" style="stroke:#90353B;stroke-width:8.64"/>
	<line x1="2437.01" y1="1070.72" x2="2481.06" y2="1070.72" stroke-linecap="round" style="stroke:#90353B;stroke-width:8.64"/>
	<line x1="2626.22" y1="994.36" x2="2626.22" y2="994.24" style="stroke:#90353B;stroke-width:8.64"/>
	<line x1="2604.20" y1="994.24" x2="2648.25" y2="994.24" stroke-linecap="round" style="stroke:#90353B;stroke-width:8.64"/>
	<line x1="2604.20" y1="994.36" x2="2648.25" y2="994.36" stroke-linecap="round" style="stroke:#90353B;stroke-width:8.64"/>
	<line x1="2793.29" y1="919.37" x2="2793.29" y2="919.37" style="stroke:#90353B;stroke-width:8.64"/>
	<line x1="2771.26" y1="919.37" x2="2815.31" y2="919.37" stroke-linecap="round" style="stroke:#90353B;stroke-width:8.64"/>
	<line x1="2771.26" y1="919.37" x2="2815.31" y2="919.37" stroke-linecap="round" style="stroke:#90353B;stroke-width:8.64"/>
	<line x1="2960.35" y1="846.11" x2="2960.35" y2="845.98" style="stroke:#90353B;stroke-width:8.64"/>
	<line x1="2938.32" y1="845.98" x2="2982.38" y2="845.98" stroke-linecap="round" style="stroke:#90353B;stroke-width:8.64"/>
	<line x1="2938.32" y1="846.11" x2="2982.38" y2="846.11" stroke-linecap="round" style="stroke:#90353B;stroke-width:8.64"/>
	<line x1="3127.41" y1="774.33" x2="3127.41" y2="774.20" style="stroke:#90353B;stroke-width:8.64"/>
	<line x1="3105.38" y1="774.20" x2="3149.44" y2="774.20" stroke-linecap="round" style="stroke:#90353B;stroke-width:8.64"/>
	<line x1="3105.38" y1="774.33" x2="3149.44" y2="774.33" stroke-linecap="round" style="stroke:#90353B;stroke-width:8.64"/>
	<line x1="3294.47" y1="704.04" x2="3294.47" y2="703.91" style="stroke:#90353B;stroke-width:8.64"/>
	<line x1="3272.45" y1="703.91" x2="3316.50" y2="703.91" stroke-linecap="round" style="stroke:#90353B;stroke-width:8.64"/>
	<line x1="3272.45" y1="704.04" x2="3316.50" y2="704.04" stroke-linecap="round" style="stroke:#90353B;stroke-width:8.64"/>
	<line x1="3461.54" y1="635.48" x2="3461.54" y2="635.23" style="stroke:#90353B;stroke-width:8.64"/>
	<line x1="3439.51" y1="635.23" x2="3483.56" y2="635.23" stroke-linecap="round" style="stroke:#90353B;stroke-width:8.64"/>
	<line x1="3439.51" y1="635.48" x2="3483.56" y2="635.48" stroke-linecap="round" style="stroke:#90353B;stroke-width:8.64"/>
	<line x1="3628.60" y1="568.28" x2="3628.60" y2="568.15" style="stroke:#90353B;stroke-width:8.64"/>
	<line x1="3606.57" y1="568.15" x2="3650.63" y2="568.15" stroke-linecap="round" style="stroke:#90353B;stroke-width:8.64"/>
	<line x1="3606.57" y1="568.28" x2="3650.63" y2="568.28" stroke-linecap="round" style="stroke:#90353B;stroke-width:8.64"/>
	<line x1="3795.66" y1="502.69" x2="3795.66" y2="502.56" style="stroke:#90353B;stroke-width:8.64"/>
	<line x1="3773.63" y1="502.56" x2="3817.69" y2="502.56" stroke-linecap="round" style="stroke:#90353B;stroke-width:8.64"/>
	<line x1="3773.63" y1="502.69" x2="3817.69" y2="502.69" stroke-linecap="round" style="stroke:#90353B;stroke-width:8.64"/>
	<path d=" M454.04 2133.27 L621.10 2062.61 L788.29 1993.55 L955.35 1925.98 L1122.41 1859.90 L1289.47 1795.42 L1456.54 1732.55 L1623.60 1671.17 L1790.66 1611.28 L1957.85 1552.99 L2124.91 1496.31 L2291.97 1441.11 L2459.04 1387.53 L2626.10 1335.43 L2793.16 1284.94 L2960.22 1235.93 L3127.29 1188.53 L3294.47 1142.62 L3461.54 1098.32 L3628.60 1055.62 L3795.66 1014.29" stroke-linejoin="round" style="fill:none;stroke:#1A476F;stroke-width:8.64"/>
	<circle cx="454.04" cy="2133.27" r="26.35" style="fill:#1A476F"/>
	<circle cx="454.04" cy="2133.27" r="22.03" style="fill:none;stroke:#1A476F;stroke-width:8.64"/>
	<circle cx="621.10" cy="2062.61" r="26.35" style="fill:#1A476F"/>
	<circle cx="621.10" cy="2062.61" r="22.03" style="fill:none;stroke:#1A476F;stroke-width:8.64"/>
	<circle cx="788.29" cy="1993.55" r="26.35" style="fill:#1A476F"/>
	<circle cx="788.29" cy="1993.55" r="22.03" style="fill:none;stroke:#1A476F;stroke-width:8.64"/>
	<circle cx="955.35" cy="1925.98" r="26.35" style="fill:#1A476F"/>
	<circle cx="955.35" cy="1925.98" r="22.03" style="fill:none;stroke:#1A476F;stroke-width:8.64"/>
	<circle cx="1122.41" cy="1859.90" r="26.35" style="fill:#1A476F"/>
	<circle cx="1122.41" cy="1859.90" r="22.03" style="fill:none;stroke:#1A476F;stroke-width:8.64"/>
	<circle cx="1289.47" cy="1795.42" r="26.35" style="fill:#1A476F"/>
	<circle cx="1289.47" cy="1795.42" r="22.03" style="fill:none;stroke:#1A476F;stroke-width:8.64"/>
	<circle cx="1456.54" cy="1732.55" r="26.35" style="fill:#1A476F"/>
	<circle cx="1456.54" cy="1732.55" r="22.03" style="fill:none;stroke:#1A476F;stroke-width:8.64"/>
	<circle cx="1623.60" cy="1671.17" r="26.35" style="fill:#1A476F"/>
	<circle cx="1623.60" cy="1671.17" r="22.03" style="fill:none;stroke:#1A476F;stroke-width:8.64"/>
	<circle cx="1790.66" cy="1611.28" r="26.35" style="fill:#1A476F"/>
	<circle cx="1790.66" cy="1611.28" r="22.03" style="fill:none;stroke:#1A476F;stroke-width:8.64"/>
	<circle cx="1957.85" cy="1552.99" r="26.35" style="fill:#1A476F"/>
	<circle cx="1957.85" cy="1552.99" r="22.03" style="fill:none;stroke:#1A476F;stroke-width:8.64"/>
	<circle cx="2124.91" cy="1496.31" r="26.35" style="fill:#1A476F"/>
	<circle cx="2124.91" cy="1496.31" r="22.03" style="fill:none;stroke:#1A476F;stroke-width:8.64"/>
	<circle cx="2291.97" cy="1441.11" r="26.35" style="fill:#1A476F"/>
	<circle cx="2291.97" cy="1441.11" r="22.03" style="fill:none;stroke:#1A476F;stroke-width:8.64"/>
	<circle cx="2459.04" cy="1387.53" r="26.35" style="fill:#1A476F"/>
	<circle cx="2459.04" cy="1387.53" r="22.03" style="fill:none;stroke:#1A476F;stroke-width:8.64"/>
	<circle cx="2626.10" cy="1335.43" r="26.35" style="fill:#1A476F"/>
	<circle cx="2626.10" cy="1335.43" r="22.03" style="fill:none;stroke:#1A476F;stroke-width:8.64"/>
	<circle cx="2793.16" cy="1284.94" r="26.35" style="fill:#1A476F"/>
	<circle cx="2793.16" cy="1284.94" r="22.03" style="fill:none;stroke:#1A476F;stroke-width:8.64"/>
	<circle cx="2960.22" cy="1235.93" r="26.35" style="fill:#1A476F"/>
	<circle cx="2960.22" cy="1235.93" r="22.03" style="fill:none;stroke:#1A476F;stroke-width:8.64"/>
	<circle cx="3127.29" cy="1188.53" r="26.35" style="fill:#1A476F"/>
	<circle cx="3127.29" cy="1188.53" r="22.03" style="fill:none;stroke:#1A476F;stroke-width:8.64"/>
	<circle cx="3294.47" cy="1142.62" r="26.35" style="fill:#1A476F"/>
	<circle cx="3294.47" cy="1142.62" r="22.03" style="fill:none;stroke:#1A476F;stroke-width:8.64"/>
	<circle cx="3461.54" cy="1098.32" r="26.35" style="fill:#1A476F"/>
	<circle cx="3461.54" cy="1098.32" r="22.03" style="fill:none;stroke:#1A476F;stroke-width:8.64"/>
	<circle cx="3628.60" cy="1055.62" r="26.35" style="fill:#1A476F"/>
	<circle cx="3628.60" cy="1055.62" r="22.03" style="fill:none;stroke:#1A476F;stroke-width:8.64"/>
	<circle cx="3795.66" cy="1014.29" r="26.35" style="fill:#1A476F"/>
	<circle cx="3795.66" cy="1014.29" r="22.03" style="fill:none;stroke:#1A476F;stroke-width:8.64"/>
	<path d=" M454.04 2108.89 L621.10 2013.85 L788.29 1920.29 L955.35 1828.46 L1122.41 1738.00 L1289.47 1649.14 L1456.54 1561.90 L1623.60 1476.14 L1790.66 1391.98 L1957.85 1309.32 L2124.91 1228.26 L2291.97 1148.68 L2459.04 1070.72 L2626.10 994.36 L2793.16 919.49 L2960.22 846.11 L3127.29 774.33 L3294.47 704.04 L3461.54 635.35 L3628.60 568.28 L3795.66 502.69" stroke-linejoin="round" style="fill:none;stroke:#90353B;stroke-width:8.64"/>
	<circle cx="454.04" cy="2108.89" r="26.35" style="fill:#90353B"/>
	<circle cx="454.04" cy="2108.89" r="22.03" style="fill:none;stroke:#90353B;stroke-width:8.64"/>
	<circle cx="621.10" cy="2013.85" r="26.35" style="fill:#90353B"/>
	<circle cx="621.10" cy="2013.85" r="22.03" style="fill:none;stroke:#90353B;stroke-width:8.64"/>
	<circle cx="788.29" cy="1920.29" r="26.35" style="fill:#90353B"/>
	<circle cx="788.29" cy="1920.29" r="22.03" style="fill:none;stroke:#90353B;stroke-width:8.64"/>
	<circle cx="955.35" cy="1828.46" r="26.35" style="fill:#90353B"/>
	<circle cx="955.35" cy="1828.46" r="22.03" style="fill:none;stroke:#90353B;stroke-width:8.64"/>
	<circle cx="1122.41" cy="1738.00" r="26.35" style="fill:#90353B"/>
	<circle cx="1122.41" cy="1738.00" r="22.03" style="fill:none;stroke:#90353B;stroke-width:8.64"/>
	<circle cx="1289.47" cy="1649.14" r="26.35" style="fill:#90353B"/>
	<circle cx="1289.47" cy="1649.14" r="22.03" style="fill:none;stroke:#90353B;stroke-width:8.64"/>
	<circle cx="1456.54" cy="1561.90" r="26.35" style="fill:#90353B"/>
	<circle cx="1456.54" cy="1561.90" r="22.03" style="fill:none;stroke:#90353B;stroke-width:8.64"/>
	<circle cx="1623.60" cy="1476.14" r="26.35" style="fill:#90353B"/>
	<circle cx="1623.60" cy="1476.14" r="22.03" style="fill:none;stroke:#90353B;stroke-width:8.64"/>
	<circle cx="1790.66" cy="1391.98" r="26.35" style="fill:#90353B"/>
	<circle cx="1790.66" cy="1391.98" r="22.03" style="fill:none;stroke:#90353B;stroke-width:8.64"/>
	<circle cx="1957.85" cy="1309.32" r="26.35" style="fill:#90353B"/>
	<circle cx="1957.85" cy="1309.32" r="22.03" style="fill:none;stroke:#90353B;stroke-width:8.64"/>
	<circle cx="2124.91" cy="1228.26" r="26.35" style="fill:#90353B"/>
	<circle cx="2124.91" cy="1228.26" r="22.03" style="fill:none;stroke:#90353B;stroke-width:8.64"/>
	<circle cx="2291.97" cy="1148.68" r="26.35" style="fill:#90353B"/>
	<circle cx="2291.97" cy="1148.68" r="22.03" style="fill:none;stroke:#90353B;stroke-width:8.64"/>
	<circle cx="2459.04" cy="1070.72" r="26.35" style="fill:#90353B"/>
	<circle cx="2459.04" cy="1070.72" r="22.03" style="fill:none;stroke:#90353B;stroke-width:8.64"/>
	<circle cx="2626.10" cy="994.36" r="26.35" style="fill:#90353B"/>
	<circle cx="2626.10" cy="994.36" r="22.03" style="fill:none;stroke:#90353B;stroke-width:8.64"/>
	<circle cx="2793.16" cy="919.49" r="26.35" style="fill:#90353B"/>
	<circle cx="2793.16" cy="919.49" r="22.03" style="fill:none;stroke:#90353B;stroke-width:8.64"/>
	<circle cx="2960.22" cy="846.11" r="26.35" style="fill:#90353B"/>
	<circle cx="2960.22" cy="846.11" r="22.03" style="fill:none;stroke:#90353B;stroke-width:8.64"/>
	<circle cx="3127.29" cy="774.33" r="26.35" style="fill:#90353B"/>
	<circle cx="3127.29" cy="774.33" r="22.03" style="fill:none;stroke:#90353B;stroke-width:8.64"/>
	<circle cx="3294.47" cy="704.04" r="26.35" style="fill:#90353B"/>
	<circle cx="3294.47" cy="704.04" r="22.03" style="fill:none;stroke:#90353B;stroke-width:8.64"/>
	<circle cx="3461.54" cy="635.35" r="26.35" style="fill:#90353B"/>
	<circle cx="3461.54" cy="635.35" r="22.03" style="fill:none;stroke:#90353B;stroke-width:8.64"/>
	<circle cx="3628.60" cy="568.28" r="26.35" style="fill:#90353B"/>
	<circle cx="3628.60" cy="568.28" r="22.03" style="fill:none;stroke:#90353B;stroke-width:8.64"/>
	<circle cx="3795.66" cy="502.69" r="26.35" style="fill:#90353B"/>
	<circle cx="3795.66" cy="502.69" r="22.03" style="fill:none;stroke:#90353B;stroke-width:8.64"/>
	<line x1="390.80" y1="2233.63" x2="390.80" y2="261.37" style="stroke:#000000;stroke-width:5.76"/>
	<line x1="390.80" y1="2170.27" x2="350.83" y2="2170.27" style="stroke:#000000;stroke-width:5.76"/>
	<text x="300.72" y="2170.27" style="font-family:'Helvetica';font-size:99.99px;fill:#000000" transform="rotate(-90 300.72,2170.27)" text-anchor="middle">.4</text>
	<line x1="390.80" y1="1708.92" x2="350.83" y2="1708.92" style="stroke:#000000;stroke-width:5.76"/>
	<text x="300.72" y="1708.92" style="font-family:'Helvetica';font-size:99.99px;fill:#000000" transform="rotate(-90 300.72,1708.92)" text-anchor="middle">.6</text>
	<line x1="390.80" y1="1247.56" x2="350.83" y2="1247.56" style="stroke:#000000;stroke-width:5.76"/>
	<text x="300.72" y="1247.56" style="font-family:'Helvetica';font-size:99.99px;fill:#000000" transform="rotate(-90 300.72,1247.56)" text-anchor="middle">.8</text>
	<line x1="390.80" y1="786.08" x2="350.83" y2="786.08" style="stroke:#000000;stroke-width:5.76"/>
	<text x="300.72" y="786.08" style="font-family:'Helvetica';font-size:99.99px;fill:#000000" transform="rotate(-90 300.72,786.08)" text-anchor="middle">1</text>
	<line x1="390.80" y1="324.73" x2="350.83" y2="324.73" style="stroke:#000000;stroke-width:5.76"/>
	<text x="300.72" y="324.73" style="font-family:'Helvetica';font-size:99.99px;fill:#000000" transform="rotate(-90 300.72,324.73)" text-anchor="middle">1.2</text>
	<text x="190.71" y="1247.56" style="font-family:'Helvetica';font-size:99.99px;fill:#000000" transform="rotate(-90 190.71,1247.56)" text-anchor="middle">Fitted Fitness Score</text>
	<line x1="390.80" y1="2233.63" x2="3859.02" y2="2233.63" style="stroke:#000000;stroke-width:5.76"/>
	<line x1="454.16" y1="2233.63" x2="454.16" y2="2273.73" style="stroke:#000000;stroke-width:5.76"/>
	<text x="454.16" y="2363.59" style="font-family:'Helvetica';font-size:99.99px;fill:#000000" text-anchor="middle">0</text>
	<line x1="621.23" y1="2233.63" x2="621.23" y2="2273.73" style="stroke:#000000;stroke-width:5.76"/>
	<text x="621.23" y="2363.59" style="font-family:'Helvetica';font-size:99.99px;fill:#000000" text-anchor="middle">10</text>
	<line x1="788.29" y1="2233.63" x2="788.29" y2="2273.73" style="stroke:#000000;stroke-width:5.76"/>
	<text x="788.29" y="2363.59" style="font-family:'Helvetica';font-size:99.99px;fill:#000000" text-anchor="middle">20</text>
	<line x1="955.35" y1="2233.63" x2="955.35" y2="2273.73" style="stroke:#000000;stroke-width:5.76"/>
	<text x="955.35" y="2363.59" style="font-family:'Helvetica';font-size:99.99px;fill:#000000" text-anchor="middle">30</text>
	<line x1="1122.41" y1="2233.63" x2="1122.41" y2="2273.73" style="stroke:#000000;stroke-width:5.76"/>
	<text x="1122.41" y="2363.59" style="font-family:'Helvetica';font-size:99.99px;fill:#000000" text-anchor="middle">40</text>
	<line x1="1289.47" y1="2233.63" x2="1289.47" y2="2273.73" style="stroke:#000000;stroke-width:5.76"/>
	<text x="1289.47" y="2363.59" style="font-family:'Helvetica';font-size:99.99px;fill:#000000" text-anchor="middle">50</text>
	<line x1="1456.66" y1="2233.63" x2="1456.66" y2="2273.73" style="stroke:#000000;stroke-width:5.76"/>
	<text x="1456.66" y="2363.59" style="font-family:'Helvetica';font-size:99.99px;fill:#000000" text-anchor="middle">60</text>
	<line x1="1623.72" y1="2233.63" x2="1623.72" y2="2273.73" style="stroke:#000000;stroke-width:5.76"/>
	<text x="1623.72" y="2363.59" style="font-family:'Helvetica';font-size:99.99px;fill:#000000" text-anchor="middle">70</text>
	<line x1="1790.79" y1="2233.63" x2="1790.79" y2="2273.73" style="stroke:#000000;stroke-width:5.76"/>
	<text x="1790.79" y="2363.59" style="font-family:'Helvetica';font-size:99.99px;fill:#000000" text-anchor="middle">80</text>
	<line x1="1957.85" y1="2233.63" x2="1957.85" y2="2273.73" style="stroke:#000000;stroke-width:5.76"/>
	<text x="1957.85" y="2363.59" style="font-family:'Helvetica';font-size:99.99px;fill:#000000" text-anchor="middle">90</text>
	<line x1="2124.91" y1="2233.63" x2="2124.91" y2="2273.73" style="stroke:#000000;stroke-width:5.76"/>
	<text x="2124.91" y="2363.59" style="font-family:'Helvetica';font-size:99.99px;fill:#000000" text-anchor="middle">100</text>
	<line x1="2291.97" y1="2233.63" x2="2291.97" y2="2273.73" style="stroke:#000000;stroke-width:5.76"/>
	<text x="2291.97" y="2363.59" style="font-family:'Helvetica';font-size:99.99px;fill:#000000" text-anchor="middle">110</text>
	<line x1="2459.04" y1="2233.63" x2="2459.04" y2="2273.73" style="stroke:#000000;stroke-width:5.76"/>
	<text x="2459.04" y="2363.59" style="font-family:'Helvetica';font-size:99.99px;fill:#000000" text-anchor="middle">120</text>
	<line x1="2626.22" y1="2233.63" x2="2626.22" y2="2273.73" style="stroke:#000000;stroke-width:5.76"/>
	<text x="2626.22" y="2363.59" style="font-family:'Helvetica';font-size:99.99px;fill:#000000" text-anchor="middle">130</text>
	<line x1="2793.29" y1="2233.63" x2="2793.29" y2="2273.73" style="stroke:#000000;stroke-width:5.76"/>
	<text x="2793.29" y="2363.59" style="font-family:'Helvetica';font-size:99.99px;fill:#000000" text-anchor="middle">140</text>
	<line x1="2960.35" y1="2233.63" x2="2960.35" y2="2273.73" style="stroke:#000000;stroke-width:5.76"/>
	<text x="2960.35" y="2363.59" style="font-family:'Helvetica';font-size:99.99px;fill:#000000" text-anchor="middle">150</text>
	<line x1="3127.41" y1="2233.63" x2="3127.41" y2="2273.73" style="stroke:#000000;stroke-width:5.76"/>
	<text x="3127.41" y="2363.59" style="font-family:'Helvetica';font-size:99.99px;fill:#000000" text-anchor="middle">160</text>
	<line x1="3294.47" y1="2233.63" x2="3294.47" y2="2273.73" style="stroke:#000000;stroke-width:5.76"/>
	<text x="3294.47" y="2363.59" style="font-family:'Helvetica';font-size:99.99px;fill:#000000" text-anchor="middle">170</text>
	<line x1="3461.54" y1="2233.63" x2="3461.54" y2="2273.73" style="stroke:#000000;stroke-width:5.76"/>
	<text x="3461.54" y="2363.59" style="font-family:'Helvetica';font-size:99.99px;fill:#000000" text-anchor="middle">180</text>
	<line x1="3628.60" y1="2233.63" x2="3628.60" y2="2273.73" style="stroke:#000000;stroke-width:5.76"/>
	<text x="3628.60" y="2363.59" style="font-family:'Helvetica';font-size:99.99px;fill:#000000" text-anchor="middle">190</text>
	<line x1="3795.66" y1="2233.63" x2="3795.66" y2="2273.73" style="stroke:#000000;stroke-width:5.76"/>
	<text x="3795.66" y="2363.59" style="font-family:'Helvetica';font-size:99.99px;fill:#000000" text-anchor="middle">200</text>
	<text x="2124.91" y="2473.60" style="font-family:'Helvetica';font-size:99.99px;fill:#000000" text-anchor="middle">Sentence Generation</text>
	<rect x="880.11" y="2558.24" width="2489.73" height="186.37" style="fill:#FFFFFF"/>
	<rect x="882.99" y="2561.12" width="2483.97" height="180.61" style="fill:none;stroke:#000000;stroke-width:5.76"/>
	<line x1="923.30" y1="2651.43" x2="1297.64" y2="2651.43" style="stroke:#1A476F;stroke-width:8.64"/>
	<circle cx="1110.53" cy="2651.43" r="26.35" style="fill:#1A476F"/>
	<circle cx="1110.53" cy="2651.43" r="22.03" style="fill:none;stroke:#1A476F;stroke-width:8.64"/>
	<line x1="2145.33" y1="2651.43" x2="2519.80" y2="2651.43" style="stroke:#90353B;stroke-width:8.64"/>
	<circle cx="2332.56" cy="2651.43" r="26.35" style="fill:#90353B"/>
	<circle cx="2332.56" cy="2651.43" r="22.03" style="fill:none;stroke:#90353B;stroke-width:8.64"/>
	<text x="1357.66" y="2686.46" style="font-family:'Helvetica';font-size:99.99px;fill:#000000">No Correction</text>
	<text x="2579.82" y="2686.46" style="font-family:'Helvetica';font-size:99.99px;fill:#000000">Error Correction</text>
	<text x="1979.88" y="206.19" style="font-family:'Helvetica';font-size:125.98px;fill:#1E2D53" text-anchor="middle">Panel A</text>
</svg>
